<svg xmlns="http://www.w3.org/2000/svg" xmlns:xlink="http://www.w3.org/1999/xlink" width="335" height="335" viewBox="0 0 335 335">
    <g>
        <!--<path id='npe-mask-core' fill="#FFF" d="M182.35 331.816c-8.201-1.468-21.502-1.467-29.7 0l-15.797 2.825c-8.202 1.467-20.016-1.7-26.383-7.069l-12.267-10.345c-6.37-5.372-17.889-12.022-25.722-14.85l-15.093-5.452c-7.836-2.83-16.484-11.48-19.313-19.313l-5.451-15.093c-2.83-7.837-9.482-19.355-14.85-25.722L7.427 224.53c-5.371-6.37-8.536-18.185-7.07-26.383l2.826-15.797c1.468-8.201 1.467-21.502 0-29.7L.36 136.853c-1.467-8.202 1.7-20.016 7.069-26.383l10.345-12.267c5.372-6.37 12.022-17.889 14.85-25.722l5.452-15.093c2.83-7.836 11.48-16.484 19.313-19.313l15.093-5.451c7.837-2.83 19.355-9.482 25.722-14.85L110.47 7.427c6.37-5.371 18.185-8.536 26.383-7.07l15.797 2.826c8.201 1.468 21.502 1.467 29.7 0L198.147.36c8.202-1.467 20.016 1.7 26.383 7.069l12.267 10.345c6.37 5.372 17.889 12.022 25.722 14.85l15.093 5.452c7.836 2.83 16.484 11.48 19.313 19.313l5.451 15.093c2.83 7.837 9.482 19.355 14.85 25.722l10.346 12.267c5.371 6.37 8.536 18.185 7.07 26.383l-2.826 15.797c-1.468 8.201-1.467 21.502 0 29.7l2.825 15.797c1.467 8.202-1.7 20.016-7.069 26.383l-10.345 12.267c-5.372 6.37-12.022 17.889-14.85 25.722l-5.452 15.093c-2.83 7.836-11.48 16.484-19.313 19.313l-15.093 5.451c-7.837 2.83-19.355 9.482-25.722 14.85l-12.267 10.346c-6.37 5.371-18.185 8.536-26.383 7.07l-15.797-2.826z" style='stroke-width:0px; stroke:#ffffff; stroke-opacity:1.0; fill-opacity:0.0;'/>-->
        <path id='npe-mask-core' fill="#FFF" d="M182.35 331.816c-8.201-1.468-21.502-1.467-29.7 0l-15.797 2.825c-8.202 1.467-20.016-1.7-26.383-7.069l-12.267-10.345c-6.37-5.372-17.889-12.022-25.722-14.85l-15.093-5.452c-7.836-2.83-16.484-11.48-19.313-19.313l-5.451-15.093c-2.83-7.837-9.482-19.355-14.85-25.722L7.427 224.53c-5.371-6.37-8.536-18.185-7.07-26.383l2.826-15.797c1.468-8.201 1.467-21.502 0-29.7L.36 136.853c-1.467-8.202 1.7-20.016 7.069-26.383l10.345-12.267c5.372-6.37 12.022-17.889 14.85-25.722l5.452-15.093c2.83-7.836 11.48-16.484 19.313-19.313l15.093-5.451c7.837-2.83 19.355-9.482 25.722-14.85L110.47 7.427c6.37-5.371 18.185-8.536 26.383-7.07l15.797 2.826c8.201 1.468 21.502 1.467 29.7 0L198.147.36c8.202-1.467 20.016 1.7 26.383 7.069l12.267 10.345c6.37 5.372 17.889 12.022 25.722 14.85l15.093 5.452c7.836 2.83 16.484 11.48 19.313 19.313l5.451 15.093c2.83 7.837 9.482 19.355 14.85 25.722l10.346 12.267c5.371 6.37 8.536 18.185 7.07 26.383l-2.826 15.797c-1.468 8.201-1.467 21.502 0 29.7l2.825 15.797c1.467 8.202-1.7 20.016-7.069 26.383l-10.345 12.267c-5.372 6.37-12.022 17.889-14.85 25.722l-5.452 15.093c-2.83 7.836-11.48 16.484-19.313 19.313l-15.093 5.451c-7.837 2.83-19.355 9.482-25.722 14.85l-12.267 10.346c-6.37 5.371-18.185 8.536-26.383 7.07l-15.797-2.826z"/>
    </g>
</svg>
