<svg xmlns="http://www.w3.org/2000/svg" xmlns:xlink="http://www.w3.org/1999/xlink" width="320" height="320" viewBox="0 0 320 320">
    <g>
        <path id='npe-mask-core' fill="#FFF" d="M160 307.2l-10.046 12.484-8.403-13.645-11.532 11.127-6.626-14.59-12.836 9.593-4.745-15.306-13.937 7.91-2.79-15.78-14.817 6.1-.79-16.006-15.466 4.195 1.223-15.978-15.87 2.224 3.215-15.7-16.023.218 5.158-15.172-15.924-1.793 7.018-14.406-15.573-3.775 8.768-13.413-14.977-5.697 10.38-12.207-14.145-7.53 11.828-10.81L0 160l13.09-9.243-11.828-10.81 14.145-7.53-10.38-12.207 14.977-5.697-8.768-13.413 15.573-3.775-7.018-14.406 15.924-1.793-5.158-15.172 16.023.217-3.215-15.699 15.87 2.224-1.223-15.978 15.466 4.195.79-16.005 14.818 6.1 2.79-15.78 13.936 7.909 4.745-15.306 12.836 9.594 6.626-14.591 11.532 11.127L149.954.316 160 12.8 170.046.316l8.403 13.645 11.532-11.127 6.626 14.59 12.836-9.593 4.745 15.306 13.937-7.91 2.79 15.78 14.817-6.1.79 16.006 15.466-4.195-1.223 15.978 15.87-2.224-3.215 15.7 16.023-.218-5.158 15.172 15.924 1.793-7.018 14.406 15.573 3.775-8.768 13.413 14.977 5.697-10.38 12.207 14.145 7.53-11.828 10.81L320 160l-13.09 9.243 11.828 10.81-14.145 7.53 10.38 12.207-14.977 5.697 8.768 13.413-15.573 3.775 7.018 14.406-15.924 1.793 5.158 15.172-16.023-.217 3.215 15.699-15.87-2.224 1.223 15.978-15.466-4.195-.79 16.005-14.818-6.1-2.79 15.78-13.936-7.909-4.745 15.306-12.836-9.594-6.626 14.591-11.532-11.127-8.403 13.645z" style='stroke-width:0px; stroke:#ffffff; stroke-opacity:1.0; fill-opacity:0.0;'/>
    </g>
</svg>
